<?xml version="1.0" encoding="utf-8"?>
<!-- Generator: Adobe Illustrator 21.1.0, SVG Export Plug-In . SVG Version: 6.00 Build 0)  -->
<svg version="1.1" id="Layer_1" xmlns="http://www.w3.org/2000/svg" xmlns:xlink="http://www.w3.org/1999/xlink" x="0px" y="0px"
	 viewBox="0 0 32 32" style="enable-background:new 0 0 32 32;" xml:space="preserve">
<style type="text/css">
	.st0{fill:#EF7623;}
</style>
<g>
	<path class="st0" d="M14.2,2c0.3,1,1.9,3.9,2.4,5.1c0.5,1.1,0.9,2,1.6,2.9c1.5,1.7,3.5,3.2,4.6,5.2c0.8,1.3,1.4,2.7,1.5,4.3
		c0.3,2.4-0.4,4.5-1.9,6.3c-1.1,1.4-2.6,2.3-4.3,2.8c0.7-0.5,1.4-1.1,1.8-1.8c0.9-1.4,1.2-2.9,0.8-4.5c-0.3-1-0.6-1.7-1.1-2.1
		c-0.2,0.8-0.4,1.4-0.9,2c-0.4,0.5-2,2.5-2.7,2.5c0.3-0.3,1.3-2.8,1.5-3.2c0.3-0.7,0.4-1.2,0.3-2.6c-0.2-1.7-1.1-2.9-2.3-3.9
		c-0.1-0.1-0.2-0.1-0.3-0.2c0.1,0.6,0.1,1.1,0.2,1.6c0,1.1-0.4,2-1.1,2.8c-0.7,0.8-1.4,1.5-2,2.3c-1.7,2-1.3,4.8,0.3,6.5
		c0.2,0.3,0.5,0.5,0.8,0.8c-2.5-0.5-4.2-1.9-5.3-4.1c-0.5-0.9-0.7-1.9-0.7-3c0-1.5,0.5-2.8,1.4-4c0.4-0.5,0.7-1,1-1.5
		c0.1-0.2,0.4-1.5-0.1-2.8C9.7,12.9,9,10.7,8,9.4c0,0,0,0,0,0c2.7,0.9,3.3,2.2,4.8,2.7c0.6-1.1,1.1-2.2,1.7-4
		C15.2,5.7,14.2,2,14.2,2z"/>
</g>
</svg>
